PathFileType	4	(X/Y/Z)	c:/Users/goper/Files/vsCode/490R/osim_files/C06/C06_Slow_03.trc
DataRate	CameraRate	NumFrames	NumMarkers	Units                	OrigDataRate	OrigDataStartFrame	OrigNumFrames
250.00	250.00	4	36	mm	250.0	1781	3560
                Frame#	Time	LPSIS			LASIS			LTH1			LTH2			LTH3			LTH4			LLFE			LMFE			LSH1			LSH2			LSH3			LSH4			LLMAL			LMMAL			LCAL			LMTP5			LTOE			LMTP1			RPSIS			RASIS			RTH1			RTH2			RTH3			RTH4			RLFE			RMFE			RSH1			RSH2			RSH3			RSH4			RLMAL			RMMAL			RCAL			RMTP1			RTOE			RMTP5		
		X1	Y1	Z1	X2	Y2	Z2	X3	Y3	Z3	X4	Y4	Z4	X5	Y5	Z5	X6	Y6	Z6	X7	Y7	Z7	X8	Y8	Z8	X9	Y9	Z9	X10	Y10	Z10	X11	Y11	Z11	X12	Y12	Z12	X13	Y13	Z13	X14	Y14	Z14	X15	Y15	Z15	X16	Y16	Z16	X17	Y17	Z17	X18	Y18	Z18	X19	Y19	Z19	X20	Y20	Z20	X21	Y21	Z21	X22	Y22	Z22	X23	Y23	Z23	X24	Y24	Z24	X25	Y25	Z25	X26	Y26	Z26	X27	Y27	Z27	X28	Y28	Z28	X29	Y29	Z29	X30	Y30	Z30	X31	Y31	Z31	X32	Y32	Z32	X33	Y33	Z33	X34	Y34	Z34	X35	Y35	Z35	X36	Y36	Z36

1781	7.12000	-8.83470	1012.07324	210.18356	-187.05408	986.73071	303.30276	-136.97061	777.37469	375.79517	-155.71829	718.86780	377.94928	-207.49178	794.60803	357.89972	-217.40797	734.99518	360.55728	-202.26772	476.17996	345.09476	-211.59306	452.37228	228.21150	-80.99955	444.84756	346.47650	-54.15752	410.39301	341.92758	-126.44197	400.07135	355.56714	-91.88213	372.60727	349.51987	103.48354	233.08369	290.30646	68.06100	237.70630	218.72249	146.09380	273.06659	233.86296	102.00691	108.06371	318.73184	43.18530	75.69714	262.92929	64.41892	88.38266	213.28183	-4.40359	1013.18536	139.14516	-186.06932	989.97333	63.93706	-107.45208	783.19537	-9.42763	-123.03433	721.89966	-1.90981	-181.47868	796.75970	-0.29101	-185.69922	733.82367	5.56575	-158.45132	458.72693	57.39725	-179.02180	477.52896	161.75716	-100.93233	383.58878	44.51884	-101.36387	335.63287	47.40322	-161.87639	375.00623	53.17685	-153.24124	329.39029	54.75126	-107.81744	87.71714	106.13621	-121.26363	117.15355	181.23024	-40.00652	66.87294	156.84003	0.00000	0.00000	0.00000	-264.79034	57.64662	150.67628	-219.91066	32.26327	84.75639
1782	7.12400	-12.45208	1012.56818	209.96346	-190.05405	987.61609	302.75430	-142.11223	778.18988	375.73825	-162.10596	719.83881	377.89166	-212.61739	795.94720	358.03094	-222.86931	736.51978	360.52432	-210.92758	477.52106	344.83478	-220.40059	453.98837	227.92833	-89.88639	445.10275	346.17880	-63.44739	410.43799	341.76114	-135.78564	400.88440	355.24106	-101.54996	373.18536	349.26694	92.25602	231.07153	290.08658	57.34096	236.66078	217.64516	135.81009	269.97446	233.54311	88.15048	106.64788	319.41257	28.89908	74.78994	263.67972	50.53348	86.93291	213.63702	-8.04318	1013.53052	138.99380	-189.23305	990.05011	63.66887	-110.47055	783.33521	-9.34708	-125.57776	722.08929	-1.86204	-184.43764	796.21423	0.53566	-188.15376	733.75244	5.63015	-158.87442	458.85779	57.34711	-180.20718	477.55078	161.65359	-101.57240	383.71921	44.87293	-101.41231	335.87784	47.51398	-162.02783	375.16766	53.04015	-153.25610	329.63037	54.68247	-107.86729	87.78914	106.17870	-120.96795	117.23675	180.90643	-40.01058	66.94514	156.86987	0.00000	0.00000	0.00000	-264.81689	57.60312	150.64951	-219.91541	32.22530	84.76044
1783	7.12800	-16.08980	1013.01514	209.75081	-194.19476	988.51227	302.45432	-147.32994	778.95068	375.64444	-167.30136	720.80280	377.79047	-217.53433	797.28058	357.87531	-228.37936	738.01147	360.37756	-219.56087	478.81317	344.49310	-229.02579	455.54736	227.67842	-98.74735	445.22266	345.88062	-72.65393	410.23520	341.56003	-145.10652	401.56985	354.97040	-111.06230	373.52765	349.12729	81.09225	228.99533	289.89130	46.16673	234.87160	217.48070	125.49245	266.70691	233.19919	74.38631	104.50209	319.46170	14.66812	73.75279	263.81836	36.56075	85.33153	214.00084	-11.71567	1013.84613	138.82635	-192.79160	990.21759	63.25133	-114.38974	782.20538	-7.97374	-128.10765	722.27991	-1.82780	-186.90295	796.72113	-0.34665	-190.58150	733.72058	5.55015	-159.27826	458.97397	57.30459	-180.82782	477.52780	161.53723	-101.87634	383.92340	45.04242	-101.44711	336.13971	47.61847	-162.36931	375.27814	53.07255	-153.28468	329.73822	54.52566	-107.93116	87.83842	106.20782	-121.11752	117.37049	180.90765	-39.98126	67.07698	156.91571	0.00000	0.00000	0.00000	-264.86633	57.54720	150.62628	-219.94206	32.17949	84.77784
1784	7.13200	-19.80484	1013.35687	209.57611	-197.68805	989.26373	302.01266	-152.20027	779.78644	375.62460	-172.96513	721.73279	377.75562	-222.45830	798.64502	357.65970	-233.84993	739.40204	360.30704	-228.05096	480.09375	344.14734	-237.51920	457.20938	227.39478	-107.48793	445.15198	345.63568	-81.97752	409.81409	341.30484	-154.47406	402.10931	354.64688	-120.80681	373.68390	348.91321	69.75201	226.67595	289.70575	34.94313	232.85617	217.27477	114.87132	263.25449	232.88498	60.43879	102.59043	319.82129	0.38356	72.54165	264.31369	22.55463	83.59637	214.23196	-15.42732	1014.02167	138.61836	-196.43135	990.43140	62.87121	-117.29683	782.35876	-7.98005	-130.60666	722.36530	-1.74777	-189.66881	796.67523	-0.35123	-193.06796	733.65125	5.56105	-159.64313	459.09088	57.24679	-181.58675	477.55173	161.46529	-101.99968	384.22189	45.17585	-101.44320	336.38284	47.71847	-161.97728	375.38196	52.83065	-153.28758	329.87521	54.38815	-107.99716	87.90560	106.23680	-121.29326	117.51230	180.89288	-39.98483	67.20621	156.97174	0.00000	0.00000	0.00000	-264.88873	57.48510	150.59129	-219.95195	32.13866	84.77562
